<svg width="380" height="190" viewBox="0 0 380 190" fill="none" xmlns="http://www.w3.org/2000/svg">
<g clip-path="url(#clip0_201_2)">
<g filter="url(#filter0_d_201_2)">
<path d="M40 70C40 42.3858 62.3858 20 90 20H330C335.523 20 340 24.4772 340 30V80C340 107.614 317.614 130 290 130H50C44.4772 130 40 125.523 40 120V70Z" fill="white"/>
<path d="M95 100C108.807 100 120 88.8071 120 75C120 61.1929 108.807 50 95 50C81.1929 50 70 61.1929 70 75C70 88.8071 81.1929 100 95 100Z" fill="#FDEDEF"/>
<path d="M101.092 85.4375C100.139 85.4375 98.7999 85.0928 96.795 83.9727C94.357 82.6055 92.4713 81.3433 90.0465 78.9248C87.7086 76.5884 86.5709 75.0757 84.9786 72.1783C83.1798 68.9068 83.4864 67.1919 83.8292 66.459C84.2374 65.583 84.8399 65.0591 85.6187 64.5391C86.0611 64.2493 86.5292 64.0008 87.0172 63.7969C87.066 63.7759 87.1114 63.7559 87.1519 63.7378C87.3936 63.6289 87.7599 63.4644 88.2237 63.6402C88.5333 63.7564 88.8097 63.9942 89.2423 64.4214C90.1295 65.2964 91.3419 67.2452 91.7891 68.2022C92.0894 68.8472 92.2882 69.273 92.2887 69.7505C92.2887 70.3096 92.0074 70.7408 91.6661 71.2061C91.6021 71.2935 91.5387 71.377 91.4771 71.458C91.1056 71.9463 91.024 72.0874 91.0777 72.3394C91.1866 72.8457 91.9986 74.3531 93.3331 75.6846C94.6676 77.0161 96.1314 77.7769 96.6397 77.8853C96.9024 77.9414 97.0465 77.8565 97.5504 77.4717C97.6226 77.4165 97.6969 77.3594 97.7745 77.3023C98.295 76.9151 98.7061 76.6411 99.252 76.6411H99.255C99.7301 76.6411 100.137 76.8472 100.811 77.187C101.69 77.6304 103.697 78.8272 104.577 79.7154C105.005 80.147 105.244 80.4224 105.361 80.7315C105.537 81.1968 105.371 81.5616 105.263 81.8057C105.245 81.8462 105.225 81.8907 105.204 81.94C104.999 82.4271 104.749 82.8942 104.458 83.3355C103.939 84.1119 103.413 84.7129 102.535 85.1216C102.084 85.3349 101.591 85.4429 101.092 85.4375Z" fill="#EE4A62"/>
<path d="M140.122 66.091C139.264 66.091 138.475 65.8917 137.756 65.493C137.045 65.0943 136.478 64.5397 136.053 63.829C135.637 63.1097 135.429 62.3037 135.429 61.411C135.429 60.5183 135.637 59.7167 136.053 59.006C136.478 58.2953 137.045 57.7407 137.756 57.342C138.475 56.9433 139.264 56.744 140.122 56.744C140.98 56.744 141.764 56.9433 142.475 57.342C143.194 57.7407 143.758 58.2953 144.165 59.006C144.581 59.7167 144.789 60.5183 144.789 61.411C144.789 62.3037 144.581 63.1097 144.165 63.829C143.749 64.5397 143.186 65.0943 142.475 65.493C141.764 65.8917 140.98 66.091 140.122 66.091ZM140.122 64.063C140.85 64.063 141.431 63.8203 141.864 63.335C142.306 62.8497 142.527 62.2083 142.527 61.411C142.527 60.605 142.306 59.9637 141.864 59.487C141.431 59.0017 140.85 58.759 140.122 58.759C139.385 58.759 138.796 58.9973 138.354 59.474C137.921 59.9507 137.704 60.5963 137.704 61.411C137.704 62.217 137.921 62.8627 138.354 63.348C138.796 63.8247 139.385 64.063 140.122 64.063ZM154.58 66H152.357L148.639 60.371V66H146.416V56.874H148.639L152.357 62.529V56.874H154.58V66ZM158.804 64.284H161.716V66H156.581V56.874H158.804V64.284ZM165.389 56.874V66H163.166V56.874H165.389ZM175.554 66H173.331L169.613 60.371V66H167.39V56.874H169.613L173.331 62.529V56.874H175.554V66ZM179.779 58.655V60.501H182.756V62.217H179.779V64.219H183.146V66H177.556V56.874H183.146V58.655H179.779ZM191.426 66.091C190.759 66.091 190.161 65.9827 189.632 65.766C189.103 65.5493 188.679 65.2287 188.358 64.804C188.046 64.3793 187.881 63.868 187.864 63.27H190.23C190.265 63.608 190.382 63.868 190.581 64.05C190.78 64.2233 191.04 64.31 191.361 64.31C191.69 64.31 191.95 64.2363 192.141 64.089C192.332 63.933 192.427 63.7207 192.427 63.452C192.427 63.2267 192.349 63.0403 192.193 62.893C192.046 62.7457 191.859 62.6243 191.634 62.529C191.417 62.4337 191.105 62.3253 190.698 62.204C190.109 62.022 189.628 61.84 189.255 61.658C188.882 61.476 188.562 61.2073 188.293 60.852C188.024 60.4967 187.89 60.033 187.89 59.461C187.89 58.6117 188.198 57.9487 188.813 57.472C189.428 56.9867 190.23 56.744 191.218 56.744C192.223 56.744 193.034 56.9867 193.649 57.472C194.264 57.9487 194.594 58.616 194.637 59.474H192.232C192.215 59.1793 192.106 58.9497 191.907 58.785C191.708 58.6117 191.452 58.525 191.14 58.525C190.871 58.525 190.655 58.5987 190.49 58.746C190.325 58.8847 190.243 59.0883 190.243 59.357C190.243 59.6517 190.382 59.8813 190.659 60.046C190.936 60.2107 191.37 60.3883 191.959 60.579C192.548 60.7783 193.025 60.969 193.389 61.151C193.762 61.333 194.082 61.5973 194.351 61.944C194.62 62.2907 194.754 62.737 194.754 63.283C194.754 63.803 194.62 64.2753 194.351 64.7C194.091 65.1247 193.71 65.4627 193.207 65.714C192.704 65.9653 192.111 66.091 191.426 66.091ZM198.696 56.874V62.334C198.696 62.88 198.83 63.3003 199.099 63.595C199.368 63.8897 199.762 64.037 200.282 64.037C200.802 64.037 201.201 63.8897 201.478 63.595C201.755 63.3003 201.894 62.88 201.894 62.334V56.874H204.117V62.321C204.117 63.1357 203.944 63.8247 203.597 64.388C203.25 64.9513 202.782 65.376 202.193 65.662C201.612 65.948 200.962 66.091 200.243 66.091C199.524 66.091 198.878 65.9523 198.306 65.675C197.743 65.389 197.296 64.9643 196.967 64.401C196.638 63.829 196.473 63.1357 196.473 62.321V56.874H198.696ZM213.023 59.812C213.023 60.3407 212.902 60.826 212.659 61.268C212.416 61.7013 212.044 62.0523 211.541 62.321C211.038 62.5897 210.414 62.724 209.669 62.724H208.291V66H206.068V56.874H209.669C210.397 56.874 211.012 56.9997 211.515 57.251C212.018 57.5023 212.395 57.849 212.646 58.291C212.897 58.733 213.023 59.24 213.023 59.812ZM209.5 60.956C209.925 60.956 210.241 60.8563 210.449 60.657C210.657 60.4577 210.761 60.176 210.761 59.812C210.761 59.448 210.657 59.1663 210.449 58.967C210.241 58.7677 209.925 58.668 209.5 58.668H208.291V60.956H209.5ZM221.525 59.812C221.525 60.3407 221.404 60.826 221.161 61.268C220.919 61.7013 220.546 62.0523 220.043 62.321C219.541 62.5897 218.917 62.724 218.171 62.724H216.793V66H214.57V56.874H218.171C218.899 56.874 219.515 56.9997 220.017 57.251C220.52 57.5023 220.897 57.849 221.148 58.291C221.4 58.733 221.525 59.24 221.525 59.812ZM218.002 60.956C218.427 60.956 218.743 60.8563 218.951 60.657C219.159 60.4577 219.263 60.176 219.263 59.812C219.263 59.448 219.159 59.1663 218.951 58.967C218.743 58.7677 218.427 58.668 218.002 58.668H216.793V60.956H218.002ZM227.389 66.091C226.531 66.091 225.742 65.8917 225.023 65.493C224.312 65.0943 223.744 64.5397 223.32 63.829C222.904 63.1097 222.696 62.3037 222.696 61.411C222.696 60.5183 222.904 59.7167 223.32 59.006C223.744 58.2953 224.312 57.7407 225.023 57.342C225.742 56.9433 226.531 56.744 227.389 56.744C228.247 56.744 229.031 56.9433 229.742 57.342C230.461 57.7407 231.024 58.2953 231.432 59.006C231.848 59.7167 232.056 60.5183 232.056 61.411C232.056 62.3037 231.848 63.1097 231.432 63.829C231.016 64.5397 230.452 65.0943 229.742 65.493C229.031 65.8917 228.247 66.091 227.389 66.091ZM227.389 64.063C228.117 64.063 228.697 63.8203 229.131 63.335C229.573 62.8497 229.794 62.2083 229.794 61.411C229.794 60.605 229.573 59.9637 229.131 59.487C228.697 59.0017 228.117 58.759 227.389 58.759C226.652 58.759 226.063 58.9973 225.621 59.474C225.187 59.9507 224.971 60.5963 224.971 61.411C224.971 62.217 225.187 62.8627 225.621 63.348C226.063 63.8247 226.652 64.063 227.389 64.063ZM238.336 66L236.438 62.555H235.905V66H233.682V56.874H237.413C238.133 56.874 238.744 56.9997 239.246 57.251C239.758 57.5023 240.139 57.849 240.39 58.291C240.642 58.7243 240.767 59.2097 240.767 59.747C240.767 60.3537 240.594 60.8953 240.247 61.372C239.909 61.8487 239.407 62.1867 238.739 62.386L240.845 66H238.336ZM235.905 60.982H237.283C237.691 60.982 237.994 60.8823 238.193 60.683C238.401 60.4837 238.505 60.202 238.505 59.838C238.505 59.4913 238.401 59.2183 238.193 59.019C237.994 58.8197 237.691 58.72 237.283 58.72H235.905V60.982ZM249.118 56.874V58.655H246.7V66H244.477V58.655H242.059V56.874H249.118Z" fill="#89898B"/>
</g>
<g style="mix-blend-mode:darken" filter="url(#filter1_b_201_2)">
<path d="M159.636 95.9545V88.4545H160.909V95.9545H159.636ZM156.523 92.8409V91.5682H164.023V92.8409H156.523ZM170.456 86.2045C170.933 86.2083 171.411 86.2992 171.888 86.4773C172.365 86.6553 172.801 86.9508 173.195 87.3636C173.589 87.7727 173.905 88.3314 174.143 89.0398C174.382 89.7481 174.501 90.6364 174.501 91.7045C174.501 92.7386 174.403 93.6572 174.206 94.4602C174.013 95.2595 173.732 95.9337 173.365 96.483C173.001 97.0322 172.558 97.4489 172.036 97.733C171.517 98.017 170.929 98.1591 170.274 98.1591C169.623 98.1591 169.041 98.0303 168.53 97.7727C168.022 97.5114 167.606 97.1496 167.28 96.6875C166.958 96.2216 166.751 95.6818 166.661 95.0682H168.047C168.172 95.6023 168.42 96.0436 168.791 96.392C169.166 96.7367 169.661 96.9091 170.274 96.9091C171.172 96.9091 171.88 96.517 172.399 95.733C172.922 94.9489 173.183 93.8409 173.183 92.4091H173.092C172.88 92.7273 172.628 93.0019 172.337 93.233C172.045 93.464 171.721 93.642 171.365 93.767C171.009 93.892 170.63 93.9545 170.229 93.9545C169.562 93.9545 168.95 93.7898 168.393 93.4602C167.84 93.1269 167.397 92.6705 167.064 92.0909C166.734 91.5076 166.57 90.8409 166.57 90.0909C166.57 89.3788 166.729 88.7273 167.047 88.1364C167.369 87.5417 167.82 87.0682 168.399 86.7159C168.982 86.3636 169.668 86.1932 170.456 86.2045ZM170.456 87.4545C169.979 87.4545 169.549 87.5739 169.166 87.8125C168.787 88.0473 168.486 88.3655 168.263 88.767C168.043 89.1648 167.933 89.6061 167.933 90.0909C167.933 90.5758 168.039 91.017 168.251 91.4148C168.467 91.8087 168.761 92.1231 169.132 92.358C169.507 92.589 169.933 92.7045 170.411 92.7045C170.77 92.7045 171.106 92.6345 171.416 92.4943C171.727 92.3504 171.998 92.1553 172.229 91.9091C172.464 91.6591 172.647 91.3769 172.78 91.0625C172.912 90.7443 172.979 90.4129 172.979 90.0682C172.979 89.6136 172.869 89.1875 172.649 88.7898C172.433 88.392 172.134 88.0701 171.751 87.8239C171.373 87.5777 170.941 87.4545 170.456 87.4545ZM180.827 86.3636V98H179.418V87.8409H179.349L176.509 89.7273V88.2955L179.418 86.3636H180.827ZM192.378 86.2045C192.855 86.2083 193.332 86.2992 193.81 86.4773C194.287 86.6553 194.723 86.9508 195.116 87.3636C195.51 87.7727 195.827 88.3314 196.065 89.0398C196.304 89.7481 196.423 90.6364 196.423 91.7045C196.423 92.7386 196.325 93.6572 196.128 94.4602C195.935 95.2595 195.654 95.9337 195.287 96.483C194.923 97.0322 194.48 97.4489 193.957 97.733C193.438 98.017 192.851 98.1591 192.196 98.1591C191.545 98.1591 190.963 98.0303 190.452 97.7727C189.944 97.5114 189.527 97.1496 189.202 96.6875C188.88 96.2216 188.673 95.6818 188.582 95.0682H189.969C190.094 95.6023 190.342 96.0436 190.713 96.392C191.088 96.7367 191.582 96.9091 192.196 96.9091C193.094 96.9091 193.802 96.517 194.321 95.733C194.844 94.9489 195.105 93.8409 195.105 92.4091H195.014C194.802 92.7273 194.55 93.0019 194.259 93.233C193.967 93.464 193.643 93.642 193.287 93.767C192.931 93.892 192.552 93.9545 192.151 93.9545C191.484 93.9545 190.872 93.7898 190.315 93.4602C189.762 93.1269 189.319 92.6705 188.986 92.0909C188.656 91.5076 188.491 90.8409 188.491 90.0909C188.491 89.3788 188.651 88.7273 188.969 88.1364C189.291 87.5417 189.741 87.0682 190.321 86.7159C190.904 86.3636 191.59 86.1932 192.378 86.2045ZM192.378 87.4545C191.901 87.4545 191.471 87.5739 191.088 87.8125C190.709 88.0473 190.408 88.3655 190.185 88.767C189.965 89.1648 189.855 89.6061 189.855 90.0909C189.855 90.5758 189.961 91.017 190.173 91.4148C190.389 91.8087 190.683 92.1231 191.054 92.358C191.429 92.589 191.855 92.7045 192.332 92.7045C192.692 92.7045 193.027 92.6345 193.338 92.4943C193.649 92.3504 193.92 92.1553 194.151 91.9091C194.385 91.6591 194.569 91.3769 194.702 91.0625C194.834 90.7443 194.901 90.4129 194.901 90.0682C194.901 89.6136 194.791 89.1875 194.571 88.7898C194.355 88.392 194.056 88.0701 193.673 87.8239C193.295 87.5777 192.863 87.4545 192.378 87.4545ZM202.453 98.1591C201.597 98.1591 200.868 97.9261 200.266 97.4602C199.663 96.9905 199.203 96.3106 198.885 95.4205C198.567 94.5265 198.408 93.447 198.408 92.1818C198.408 90.9242 198.567 89.8504 198.885 88.9602C199.207 88.0663 199.669 87.3845 200.271 86.9148C200.877 86.4413 201.605 86.2045 202.453 86.2045C203.302 86.2045 204.027 86.4413 204.629 86.9148C205.235 87.3845 205.697 88.0663 206.016 88.9602C206.338 89.8504 206.499 90.9242 206.499 92.1818C206.499 93.447 206.339 94.5265 206.021 95.4205C205.703 96.3106 205.243 96.9905 204.641 97.4602C204.038 97.9261 203.309 98.1591 202.453 98.1591ZM202.453 96.9091C203.302 96.9091 203.961 96.5 204.43 95.6818C204.9 94.8636 205.135 93.697 205.135 92.1818C205.135 91.1742 205.027 90.3163 204.811 89.608C204.599 88.8996 204.292 88.3598 203.891 87.9886C203.493 87.6174 203.014 87.4318 202.453 87.4318C201.612 87.4318 200.955 87.8466 200.482 88.6761C200.008 89.5019 199.771 90.6705 199.771 92.1818C199.771 93.1894 199.877 94.0455 200.089 94.75C200.302 95.4545 200.607 95.9905 201.004 96.358C201.406 96.7254 201.889 96.9091 202.453 96.9091ZM212.749 86.3636V98H211.339V87.8409H211.271L208.43 89.7273V88.2955L211.339 86.3636H212.749ZM219.959 98.1591C219.482 98.1515 219.004 98.0606 218.527 97.8864C218.05 97.7121 217.614 97.4186 217.22 97.0057C216.826 96.589 216.51 96.0265 216.271 95.3182C216.033 94.6061 215.913 93.7121 215.913 92.6364C215.913 91.6061 216.01 90.6932 216.203 89.8977C216.396 89.0985 216.677 88.4261 217.044 87.8807C217.411 87.3314 217.855 86.9148 218.374 86.6307C218.896 86.3466 219.485 86.2045 220.141 86.2045C220.792 86.2045 221.372 86.3352 221.879 86.5966C222.391 86.8542 222.807 87.214 223.129 87.6761C223.451 88.1383 223.66 88.6705 223.754 89.2727H222.368C222.239 88.75 221.989 88.3163 221.618 87.9716C221.247 87.6269 220.754 87.4545 220.141 87.4545C219.239 87.4545 218.529 87.8466 218.01 88.6307C217.495 89.4148 217.235 90.5152 217.232 91.9318H217.322C217.535 91.6098 217.786 91.3352 218.078 91.108C218.374 90.8769 218.699 90.6989 219.055 90.5739C219.411 90.4489 219.788 90.3864 220.186 90.3864C220.853 90.3864 221.463 90.553 222.016 90.8864C222.569 91.2159 223.012 91.6723 223.345 92.2557C223.679 92.8352 223.845 93.5 223.845 94.25C223.845 94.9697 223.684 95.6288 223.362 96.2273C223.04 96.822 222.588 97.2955 222.004 97.6477C221.425 97.9962 220.743 98.1667 219.959 98.1591ZM219.959 96.9091C220.436 96.9091 220.864 96.7898 221.243 96.5511C221.625 96.3125 221.927 95.9924 222.146 95.5909C222.37 95.1894 222.482 94.7424 222.482 94.25C222.482 93.7689 222.374 93.3314 222.158 92.9375C221.946 92.5398 221.652 92.2235 221.277 91.9886C220.906 91.7538 220.482 91.6364 220.004 91.6364C219.644 91.6364 219.309 91.7083 218.999 91.8523C218.688 91.9924 218.415 92.1856 218.18 92.4318C217.949 92.678 217.768 92.9602 217.635 93.2784C217.502 93.5928 217.436 93.9242 217.436 94.2727C217.436 94.7348 217.544 95.1667 217.76 95.5682C217.98 95.9697 218.279 96.2936 218.658 96.5398C219.04 96.786 219.474 96.9091 219.959 96.9091ZM229.716 98.1591C229.049 98.1591 228.449 98.0265 227.915 97.7614C227.381 97.4962 226.953 97.1326 226.631 96.6705C226.309 96.2083 226.133 95.6818 226.102 95.0909H227.466C227.519 95.6174 227.758 96.053 228.182 96.3977C228.61 96.7386 229.121 96.9091 229.716 96.9091C230.193 96.9091 230.617 96.7973 230.989 96.5739C231.364 96.3504 231.657 96.0436 231.869 95.6534C232.085 95.2595 232.193 94.8144 232.193 94.3182C232.193 93.8106 232.081 93.358 231.858 92.9602C231.638 92.5587 231.335 92.2424 230.949 92.0114C230.563 91.7803 230.121 91.6629 229.625 91.6591C229.269 91.6553 228.903 91.7102 228.528 91.8239C228.153 91.9337 227.845 92.0758 227.602 92.25L226.284 92.0909L226.989 86.3636H233.034V87.6136H228.17L227.761 91.0455H227.83C228.068 90.8561 228.367 90.6989 228.727 90.5739C229.087 90.4489 229.462 90.3864 229.852 90.3864C230.564 90.3864 231.199 90.5568 231.756 90.8977C232.316 91.2348 232.756 91.697 233.074 92.2841C233.396 92.8712 233.557 93.5417 233.557 94.2955C233.557 95.0379 233.39 95.7008 233.057 96.2841C232.727 96.8636 232.273 97.322 231.693 97.6591C231.114 97.9924 230.455 98.1591 229.716 98.1591ZM244.246 98.1591C243.496 98.1591 242.827 98.0303 242.24 97.7727C241.657 97.5152 241.193 97.1572 240.848 96.6989C240.507 96.2367 240.321 95.7008 240.291 95.0909H241.723C241.753 95.4659 241.882 95.7898 242.109 96.0625C242.337 96.3314 242.634 96.5398 243.001 96.6875C243.369 96.8352 243.776 96.9091 244.223 96.9091C244.723 96.9091 245.166 96.822 245.553 96.6477C245.939 96.4735 246.242 96.2311 246.462 95.9205C246.681 95.6098 246.791 95.25 246.791 94.8409C246.791 94.4129 246.685 94.036 246.473 93.7102C246.261 93.3807 245.95 93.1231 245.541 92.9375C245.132 92.7519 244.632 92.6591 244.041 92.6591H243.109V91.4091H244.041C244.503 91.4091 244.909 91.3258 245.257 91.1591C245.609 90.9924 245.884 90.7576 246.081 90.4545C246.282 90.1515 246.382 89.7955 246.382 89.3864C246.382 88.9924 246.295 88.6496 246.121 88.358C245.946 88.0663 245.7 87.839 245.382 87.6761C245.068 87.5133 244.696 87.4318 244.268 87.4318C243.867 87.4318 243.488 87.5057 243.132 87.6534C242.78 87.7973 242.492 88.0076 242.268 88.2841C242.045 88.5568 241.924 88.8864 241.905 89.2727H240.541C240.564 88.6629 240.748 88.1288 241.092 87.6705C241.437 87.2083 241.888 86.8485 242.445 86.5909C243.005 86.3333 243.621 86.2045 244.291 86.2045C245.011 86.2045 245.628 86.3504 246.143 86.642C246.659 86.9299 247.054 87.3106 247.331 87.7841C247.607 88.2576 247.746 88.7689 247.746 89.3182C247.746 89.9735 247.573 90.5322 247.229 90.9943C246.888 91.4564 246.424 91.7765 245.837 91.9545V92.0455C246.571 92.1667 247.145 92.4792 247.558 92.983C247.971 93.483 248.178 94.1023 248.178 94.8409C248.178 95.4735 248.005 96.0417 247.661 96.5455C247.32 97.0455 246.854 97.4394 246.263 97.7273C245.672 98.0152 245 98.1591 244.246 98.1591ZM254.206 86.2045C254.683 86.2083 255.161 86.2992 255.638 86.4773C256.115 86.6553 256.551 86.9508 256.945 87.3636C257.339 87.7727 257.655 88.3314 257.893 89.0398C258.132 89.7481 258.251 90.6364 258.251 91.7045C258.251 92.7386 258.153 93.6572 257.956 94.4602C257.763 95.2595 257.482 95.9337 257.115 96.483C256.751 97.0322 256.308 97.4489 255.786 97.733C255.267 98.017 254.679 98.1591 254.024 98.1591C253.373 98.1591 252.791 98.0303 252.28 97.7727C251.772 97.5114 251.356 97.1496 251.03 96.6875C250.708 96.2216 250.501 95.6818 250.411 95.0682H251.797C251.922 95.6023 252.17 96.0436 252.541 96.392C252.916 96.7367 253.411 96.9091 254.024 96.9091C254.922 96.9091 255.63 96.517 256.149 95.733C256.672 94.9489 256.933 93.8409 256.933 92.4091H256.842C256.63 92.7273 256.378 93.0019 256.087 93.233C255.795 93.464 255.471 93.642 255.115 93.767C254.759 93.892 254.38 93.9545 253.979 93.9545C253.312 93.9545 252.7 93.7898 252.143 93.4602C251.59 93.1269 251.147 92.6705 250.814 92.0909C250.484 91.5076 250.32 90.8409 250.32 90.0909C250.32 89.3788 250.479 88.7273 250.797 88.1364C251.119 87.5417 251.57 87.0682 252.149 86.7159C252.732 86.3636 253.418 86.1932 254.206 86.2045ZM254.206 87.4545C253.729 87.4545 253.299 87.5739 252.916 87.8125C252.537 88.0473 252.236 88.3655 252.013 88.767C251.793 89.1648 251.683 89.6061 251.683 90.0909C251.683 90.5758 251.789 91.017 252.001 91.4148C252.217 91.8087 252.511 92.1231 252.882 92.358C253.257 92.589 253.683 92.7045 254.161 92.7045C254.52 92.7045 254.856 92.6345 255.166 92.4943C255.477 92.3504 255.748 92.1553 255.979 91.9091C256.214 91.6591 256.397 91.3769 256.53 91.0625C256.662 90.7443 256.729 90.4129 256.729 90.0682C256.729 89.6136 256.619 89.1875 256.399 88.7898C256.183 88.392 255.884 88.0701 255.501 87.8239C255.123 87.5777 254.691 87.4545 254.206 87.4545ZM264.577 86.3636V98H263.168V87.8409H263.099L260.259 89.7273V88.2955L263.168 86.3636H264.577ZM271.628 86.2045C272.105 86.2083 272.582 86.2992 273.06 86.4773C273.537 86.6553 273.973 86.9508 274.366 87.3636C274.76 87.7727 275.077 88.3314 275.315 89.0398C275.554 89.7481 275.673 90.6364 275.673 91.7045C275.673 92.7386 275.575 93.6572 275.378 94.4602C275.185 95.2595 274.904 95.9337 274.537 96.483C274.173 97.0322 273.73 97.4489 273.207 97.733C272.688 98.017 272.101 98.1591 271.446 98.1591C270.795 98.1591 270.213 98.0303 269.702 97.7727C269.194 97.5114 268.777 97.1496 268.452 96.6875C268.13 96.2216 267.923 95.6818 267.832 95.0682H269.219C269.344 95.6023 269.592 96.0436 269.963 96.392C270.338 96.7367 270.832 96.9091 271.446 96.9091C272.344 96.9091 273.052 96.517 273.571 95.733C274.094 94.9489 274.355 93.8409 274.355 92.4091H274.264C274.052 92.7273 273.8 93.0019 273.509 93.233C273.217 93.464 272.893 93.642 272.537 93.767C272.181 93.892 271.802 93.9545 271.401 93.9545C270.734 93.9545 270.122 93.7898 269.565 93.4602C269.012 93.1269 268.569 92.6705 268.236 92.0909C267.906 91.5076 267.741 90.8409 267.741 90.0909C267.741 89.3788 267.901 88.7273 268.219 88.1364C268.541 87.5417 268.991 87.0682 269.571 86.7159C270.154 86.3636 270.84 86.1932 271.628 86.2045ZM271.628 87.4545C271.151 87.4545 270.721 87.5739 270.338 87.8125C269.959 88.0473 269.658 88.3655 269.435 88.767C269.215 89.1648 269.105 89.6061 269.105 90.0909C269.105 90.5758 269.211 91.017 269.423 91.4148C269.639 91.8087 269.933 92.1231 270.304 92.358C270.679 92.589 271.105 92.7045 271.582 92.7045C271.942 92.7045 272.277 92.6345 272.588 92.4943C272.899 92.3504 273.17 92.1553 273.401 91.9091C273.635 91.6591 273.819 91.3769 273.952 91.0625C274.084 90.7443 274.151 90.4129 274.151 90.0682C274.151 89.6136 274.041 89.1875 273.821 88.7898C273.605 88.392 273.306 88.0701 272.923 87.8239C272.545 87.5777 272.113 87.4545 271.628 87.4545ZM281.999 86.3636V98H280.589V87.8409H280.521L277.68 89.7273V88.2955L280.589 86.3636H281.999Z" fill="#EE4A62"/>
</g>
</g>
<defs>
<filter id="filter0_d_201_2" x="0" y="0" width="380" height="190" filterUnits="userSpaceOnUse" color-interpolation-filters="sRGB">
<feFlood flood-opacity="0" result="BackgroundImageFix"/>
<feColorMatrix in="SourceAlpha" type="matrix" values="0 0 0 0 0 0 0 0 0 0 0 0 0 0 0 0 0 0 127 0" result="hardAlpha"/>
<feOffset dy="20"/>
<feGaussianBlur stdDeviation="20"/>
<feComposite in2="hardAlpha" operator="out"/>
<feColorMatrix type="matrix" values="0 0 0 0 0 0 0 0 0 0 0 0 0 0 0 0 0 0 0.1 0"/>
<feBlend mode="normal" in2="BackgroundImageFix" result="effect1_dropShadow_201_2"/>
<feBlend mode="normal" in="SourceGraphic" in2="effect1_dropShadow_201_2" result="shape"/>
</filter>
<filter id="filter1_b_201_2" x="152.523" y="82.1875" width="133.476" height="19.983" filterUnits="userSpaceOnUse" color-interpolation-filters="sRGB">
<feFlood flood-opacity="0" result="BackgroundImageFix"/>
<feGaussianBlur in="BackgroundImageFix" stdDeviation="2"/>
<feComposite in2="SourceAlpha" operator="in" result="effect1_backgroundBlur_201_2"/>
<feBlend mode="normal" in="SourceGraphic" in2="effect1_backgroundBlur_201_2" result="shape"/>
</filter>
<clipPath id="clip0_201_2">
<rect width="380" height="190" fill="white"/>
</clipPath>
</defs>
</svg>
